<svg t="1609752890416" class="icon" viewBox="0 0 1024 1024" version="1.1" xmlns="http://www.w3.org/2000/svg" p-id="1098" width="48" height="48"><path d="M934.156626 935.351823c-32.689836 32.898495-85.700695 32.898495-118.410518 0l-147.781404-148.729761c-60.757606 39.17344-132.598698 62.577373-210.127933 62.577373-215.789095 0-390.743076-176.030251-390.743076-393.223994 0-217.177753 174.953981-393.228991 390.743076-393.228991 215.820074 0 390.754069 176.051237 390.754069 393.228991 0 78.029296-23.253234 150.311089-62.215618 211.470623l147.781404 148.722766C966.870446 849.099503 966.870446 902.426147 934.156626 935.351823zM457.836971 175.098675c-154.1291 0-279.107165 125.754938-279.107165 280.876766 0 155.13202 124.977865 280.877365 279.107165 280.877365 154.161079 0 279.113961-125.745345 279.113961-280.877365C736.950931 300.853613 611.998049 175.098675 457.836971 175.098675z" p-id="1099" fill="#8a8a8a"></path></svg>
